# AST/ASF file generated using VICON BodyLanguage
# -----------------------------------------------
:version 1.10
:name VICON
:units
  mass 1.0
  length 0.45
  angle deg
:documentation
   .ast/.asf automatically generated from VICON data using
   VICON BodyBuilder and BodyLanguage model FoxedUp or BRILLIANT.MOD
:root
   order TX TY TZ RX RY RZ
   axis XYZ
   position 0 0 0  
   orientation 0 0 0 
:bonedata
  begin
     id 1 
     name lhipjoint
     direction 0.570549 -0.739093 0.358072 
     length 2.41801 
     axis 0 0 0  XYZ
  end
  begin
     id 2 
     name lfemur
     direction 0.34202 -0.939693 0  
     length 7.44434  
     axis 0 0 20  XYZ
    dof rx ry rz
    limits (-160.0 20.0)
           (-70.0 70.0)
           (-60.0 70.0)
  end
  begin
     id 3 
     name ltibia
     direction 0.34202 -0.939693 0   
     length 7.60047   
     axis 0 0 20   XYZ
    dof rx
    limits (-10.0 170.0)
  end
  begin
     id 4 
     name lfoot
     direction 0.0909041 -0.249757 0.964032   
     length 2.03437   
     axis -90 7.62852e-016 20   XYZ
    dof rx rz
    limits (-45.0 90.0)
           (-70.0 20.0)
  end
  begin
     id 5 
     name ltoes
     direction 1.53547e-011 -4.2174e-011 1   
     length 1.02054   
     axis -90 7.62852e-016 20   XYZ
    dof rx
    limits (-90.0 20.0)
  end
  begin
     id 6 
     name rhipjoint
     direction -0.558096 -0.746754 0.361784   
     length 2.3932  
     axis 0 0 0  XYZ 
  end
  begin
     id 7 
     name rfemur
     direction -0.34202 -0.939693 0   
     length 7.3886   
     axis 0 0 -20   XYZ
    dof rx ry rz
    limits (-160.0 20.0)
           (-70.0 70.0)
           (-70.0 60.0)
  end
  begin
     id 8 
     name rtibia
     direction -0.34202 -0.939693 0   
     length 7.4839   
     axis 0 0 -20   XYZ
    dof rx
    limits (-10.0 170.0)
 end
 begin
     id 9 
     name rfoot
     direction -0.114619 -0.314914 0.942174   
     length 2.25127  
     axis -90 -7.62852e-016 -20   XYZ
    dof rx rz
    limits (-45.0 90.0)
           (-20.0 70.0)
  end
  begin
     id 10 
     name rtoes
     direction -1.53518e-011 -4.21881e-011 1   
     length 1.11821   
     axis -90 -7.62852e-016 -20   XYZ
    dof rx
    limits (-90.0 20.0)
  end
  begin
     id 11 
     name lowerback
     direction -0.00902269 0.996426 -0.0839821   
     length 2.25052   
     axis 0 0 0   XYZ
    dof rx ry rz
    limits (-20.0 45.0)
           (-30.0 30.0)
           (-30.0 30.0)
  end
  begin
     id 12 
     name upperback
     direction 0.0370973 0.999169 -0.0168941   
     length 2.24876   
     axis 0 0 0   XYZ
    dof rx ry rz
    limits (-20.0 45.0)
           (-30.0 30.0)
           (-30.0 30.0)
  end
  begin
     id 13 
     name thorax
     direction 0.0402726 0.998931 0.0227027   
     length 2.26408   
     axis 0 0 0   XYZ
    dof rx ry rz
    limits (-20.0 45.0)
           (-30.0 30.0)
           (-30.0 30.0)
  end
  begin
     id 14 
     name lowerneck
     direction -0.0733697 0.98508 0.155675   
     length 1.58204   
     axis 0 0 0   XYZ
    dof rx ry rz
    limits (-20.0 45.0)
           (-30.0 30.0)
           (-30.0 30.0)
  end
  begin
     id 15 
     name upperneck
     direction 0.0426554 0.993501 -0.105526   
     length 1.61222   
     axis 0 0 0   XYZ
    dof rx ry rz
    limits (-20.0 45.0)
           (-30.0 30.0)
           (-30.0 30.0)
  end
  begin
     id 16
     name head
     direction 0.020792 0.998384 -0.0528868  
     length 1.61527  
     axis 0 0 0   XYZ
    dof rx ry rz
    limits (-20.0 45.0)
           (-30.0 30.0)
           (-30.0 30.0)
  end
  begin
     id 17 
     name lclavicle
     direction 0.967109 0.155462 -0.201325  
     length 3.59357  
     axis 0 0 0   XYZ
    dof ry rz
    limits (-20.0 10.0)
           (0.0 20.0)
  end
  begin
     id 18 
     name lhumerus
     direction 1 -4.48968e-011 2.38195e-027   
     length 5.38154   
     axis 180 -30 -90   XYZ
    dof rx ry rz
    limits (-60.0 90.0)
           (-90.0 90.0)
           (-90.0 90.0)
  end
  begin
     id 19
     name lradius
     direction 1 -4.48961e-011 4.85371e-027   
     length 3.33312   
     axis 180 -30 -90   XYZ
    dof rx
    limits (-10.0 170.0)
  end
  begin
     id 20
     name lwrist
     direction 1 -4.48961e-011 4.76515e-027   
     length 1.66656   
     axis -3.27502e-015 90 90   XYZ
    dof ry
    limits (-180.0 0.0)
 end
  begin
     id 21 
     name lhand
     direction 1 -4.48951e-011 9.53074e-027   
     length 0.710789   
     axis -6.08098e-015 90 90   XYZ
    dof rx rz
    limits (-90.0 90.0)
           (-45.0 45.0)
  end
  begin
     id 22 
     name lfingers
     direction 1 -4.48953e-011 1.90613e-026   
     length 0.573057   
     axis -1.21619e-014 90 90   XYZ
    dof rx
    limits (0.0 90.0)
  end
  begin
     id 23
     name lthumb
     direction 0.707107 -6.34973e-011 0.707107   
     length 0.822798   
     axis -90 45 -9.86923e-015   XYZ
    dof rx rz
    limits (-45.0 45.0)
           (-45.0 45.0)
  end
  begin
     id 24 
     name rclavicle
     direction -0.9585 0.265289 -0.104398   
     length 3.42039  
     axis 0 0 0   XYZ 
    dof ry rz
    limits (-10.0 20.0)
           (-20.0 0.0)
  end
  begin
     id 25 
     name rhumerus
     direction -1 -4.48977e-011 2.21478e-027  
     length 5.16954   
     axis 180 30 90   XYZ
    dof rx ry rz
    limits (-90.0 60.0)
           (-90.0 90.0)
           (-90.0 90.0)
  end
  begin
     id 26 
     name rradius
     direction -1 -4.48967e-011 5.63677e-027   
     length 3.38287   
     axis 180 30 90   XYZ
    dof rx
    limits (-10.0 170.0)
  end
  begin
     id 27 
     name rwrist
     direction -1 -4.48967e-011 4.76501e-027   
     length 1.69144   
     axis -3.27502e-015 -90 -90   XYZ
    dof ry
    limits (-180.0 0.0)
  end
  begin
     id 28
     name rhand
     direction -1 -4.48902e-011 9.53292e-027   
     length 0.817967   
     axis -6.08098e-015 -90 -90   XYZ
    dof rx rz
    limits (-90.0 90.0)
           (-45.0 45.0)
  end
  begin
     id 29
     name rfingers
     direction -1 -4.49012e-011 1.90561e-026   
     length 0.659466   
     axis -1.21619e-014 -90 -90   XYZ
    dof rx
    limits (0.0 90.0)
  end
  begin
     id 30
     name rthumb
     direction -0.707107 -6.34944e-011 0.707107   
     length 0.946865   
     axis -90 -45 9.86923e-015   XYZ
    dof rx rz
    limits (-45.0 45.0)
           (-45.0 45.0)
  end
:hierarchy
  begin
    root lhipjoint rhipjoint lowerback
    lhipjoint lfemur
    lfemur ltibia
    ltibia lfoot
    lfoot ltoes
    rhipjoint rfemur
    rfemur rtibia
    rtibia rfoot
    rfoot rtoes
    lowerback upperback
    upperback thorax
    thorax lowerneck lclavicle rclavicle
    lowerneck upperneck
    upperneck head
    lclavicle lhumerus
    lhumerus lradius
    lradius lwrist
    lwrist lhand lthumb
    lhand lfingers
    rclavicle rhumerus
    rhumerus rradius
    rradius rwrist
    rwrist rhand rthumb
    rhand rfingers
  end

#!OML:ASF F:\twosubjects\two\wednesday\Session 1\Justin1.ASF
:FULLY-SPECIFIED
:DEGREES
50
root 3.74317 17.4222 16.3476 181.15 -17.8781 -183.582
lowerback 4.08176 -0.573756 -5.0685
upperback 0.409056 -1.00383 0.376451
thorax -1.77518 -0.471126 3.28787
lowerneck -17.9359 -5.22735 -11.3838
upperneck 16.2042 -5.4472 6.20138
head 8.48897 -2.68894 3.25495
rclavicle 3.22155e-014 -1.11319e-014
rhumerus 38.3842 3.21897 -44.8225
rradius 33.3446
rwrist -3.93312
rhand -7.84531 25.4251
rfingers 7.12502
rthumb 18.0577 -3.75665
lclavicle 3.22155e-014 -1.11319e-014
lhumerus 23.5984 -0.352704 54.113
lradius 33.7656
lwrist -17.0181
lhand 3.93559 35.0884
lfingers 7.12502
lthumb 29.3542 62.7907
rfemur -29.7499 -9.29861 14.2711
rtibia 31.5343
rfoot 1.21638 -15.3068
rtoes 17.5729
lfemur 11.303 -0.709491 -15.307
ltibia 27.004
lfoot -9.43058 -19.7299
ltoes -16.2856
51
root 3.76265 17.4237 16.1747 180.954 -17.4015 -183.699
lowerback 2.19963 -0.431035 -5.46968
upperback 1.78796 -0.704373 0.852273
thorax 0.684162 -0.430768 3.95843
lowerneck -18.3772 -5.50516 -11.9177
upperneck 14.914 -5.57309 6.39224
head 8.16533 -2.71864 3.37677
rclavicle 9.59136e-015 -2.78299e-015
rhumerus 39.7894 2.74072 -44.1798
rradius 33.5043
rwrist -4.82653
rhand -7.62286 25.1372
rfingers 7.12502
rthumb 18.2717 -4.02464
lclavicle 9.59136e-015 -2.78299e-015
lhumerus 25.5027 1.14275 54.6274
lradius 33.4912
lwrist -17.4298
lhand 3.96357 34.8551
lfingers 7.12502
lthumb 29.3809 62.5527
rfemur -29.3919 -8.78832 14.2267
rtibia 32.3793
rfoot 0.196453 -15.3875
rtoes 20.5528
lfemur 10.9777 -0.774877 -15.1319
ltibia 28.8346
lfoot -6.72498 -20.306
ltoes -15.0083
52
root 3.77979 17.4314 16.0017 180.74 -17.022 -183.628
lowerback 2.46333 -0.322782 -5.03454
upperback 1.62026 -0.566599 0.853521
thorax 0.342925 -0.342976 3.71585
lowerneck -18.3149 -5.43213 -11.8776
upperneck 15.0441 -5.54218 6.60546
head 8.20012 -2.68545 3.4493
rclavicle 7.57867e-015 -3.97569e-015
rhumerus 39.3324 3.58681 -44.3141
rradius 33.6573
rwrist -5.47325
rhand -7.05851 24.588
rfingers 7.12502
rthumb 18.8145 -4.52212
lclavicle 7.57867e-015 -3.97569e-015
lhumerus 25.6932 1.10928 54.3121
lradius 33.3297
lwrist -17.6989
lhand 3.69281 34.8548
lfingers 7.12502
lthumb 29.1224 62.5974
rfemur -28.9644 -8.44318 14.4198
rtibia 33.0351
rfoot -0.745582 -15.0762
rtoes 21.6365
lfemur 10.5097 -0.628567 -14.6137
ltibia 30.6206
lfoot -3.30571 -21.0378
ltoes -10.7155
53
root 3.79615 17.447 15.8288 180.469 -16.8692 -183.4
lowerback 3.01863 -0.334773 -4.55836
upperback 1.22357 -0.596967 1.01336
thorax -0.377266 -0.32565 3.62127
lowerneck -18.1968 -5.36321 -11.7371
upperneck 15.4972 -5.48951 6.38354
head 8.31619 -2.68798 3.3616
rclavicle -2.99916e-014 3.97569e-015
rhumerus 38.8831 4.48034 -45.0801
rradius 33.4398
rwrist -5.40595
rhand -6.91739 24.3239
rfingers 7.12502
rthumb 18.9503 -4.77301
lclavicle -2.99916e-014 3.97569e-015
lhumerus 25.5039 1.07696 54.1135
lradius 33.1844
lwrist -18.0364
lhand 3.91662 34.8417
lfingers 7.12502
lthumb 29.3361 62.5472
rfemur -28.3869 -8.29032 14.793
rtibia 33.5304
rfoot -1.74518 -14.6517
rtoes 21.3158
lfemur 9.98793 -0.659777 -13.9387
ltibia 32.321
lfoot 0.256919 -21.5129
ltoes -7.45059
54
root 3.81364 17.4671 15.6557 180.149 -16.5453 -182.804
lowerback 4.31025 -0.374891 -3.5194
upperback 0.152946 -0.658376 1.1094
thorax -2.20779 -0.291845 3.1599
lowerneck -17.7049 -5.1184 -11.1251
upperneck 16.4858 -5.33114 5.74454
head 8.5124 -2.6792 3.07574
rclavicle 1.76918e-014 -2.18663e-014
rhumerus 37.7724 5.93145 -46.4483
rradius 33.0562
rwrist -5.05185
rhand -7.14169 24.5039
rfingers 7.12502
rthumb 18.7345 -4.61397
lclavicle 1.76918e-014 -2.18663e-014
lhumerus 24.3368 -0.135629 52.9683
lradius 33.3536
lwrist -17.4629
lhand 4.15782 34.9329
lfingers 7.12502
lthumb 29.5664 62.5978
rfemur -27.8737 -8.0391 15.6164
rtibia 33.9795
rfoot -2.7158 -14.3695
rtoes 21.1798
lfemur 9.39798 -0.880742 -13.0831
ltibia 33.9124
lfoot 3.12934 -21.5896
ltoes -8.09895
55
root 3.83004 17.4847 15.484 179.881 -16.0944 -182.001
lowerback 4.20962 -0.278106 -2.55812
upperback 0.130294 -0.477 1.4213
thorax -2.19405 -0.211561 2.92863
lowerneck -18.2242 -5.11177 -10.7991
upperneck 16.9873 -5.31595 5.46808
head 8.75549 -2.68082 2.92504
rclavicle 1.46479e-014 1.98785e-014
rhumerus 37.6177 6.26261 -47.0884
rradius 32.813
rwrist -4.89396
rhand -7.33686 24.9458
rfingers 7.12502
rthumb 18.5468 -4.19001
lclavicle 1.46479e-014 1.98785e-014
lhumerus 24.7349 -0.436912 52.3382
lradius 33.4812
lwrist -17.051
lhand 4.38367 34.9297
lfingers 7.12502
lthumb 29.7819 62.5563
rfemur -27.4881 -7.65843 16.6973
rtibia 34.4152
rfoot -3.47771 -14.2743
rtoes 21.6923
lfemur 8.57418 -1.0287 -12.1045
ltibia 35.4631
lfoot 6.03209 -21.6722
ltoes -8.33228
56
root 3.84856 17.4944 15.3199 179.88 -15.7975 -182.157
lowerback 4.14455 -0.225292 -2.57022
upperback 0.131432 -0.405025 1.482
thorax -2.16092 -0.176067 2.99334
lowerneck -18.2036 -5.07772 -11.0552
upperneck 16.9726 -5.31714 6.02004
head 8.76954 -2.64135 3.15768
rclavicle 2.29224e-014 1.43125e-014
rhumerus 37.5107 6.2561 -48.1915
rradius 32.5747
rwrist -4.14157
rhand -7.41351 25.2069
rfingers 7.12502
rthumb 18.4731 -3.93596
lclavicle 2.29224e-014 1.43125e-014
lhumerus 25.234 -0.0653512 52.2363
lradius 33.4813
lwrist -17.363
lhand 4.62299 34.7194
lfingers 7.12502
lthumb 30.0103 62.3048
rfemur -27.1067 -7.3878 16.7388
rtibia 34.77
rfoot -4.20526 -14.3013
rtoes 22.6744
lfemur 7.58459 -1.26186 -12.1751
ltibia 37.0717
lfoot 9.11879 -21.8172
ltoes -7.27289
57
root 3.8624 17.5107 15.1603 179.923 -15.4808 -182.416
lowerback 4.11103 -0.222601 -2.75259
upperback 0.0520765 -0.40648 1.65539
thorax -2.22146 -0.172305 3.27601
lowerneck -18.0149 -4.93824 -11.4762
upperneck 16.9805 -5.11966 6.40533
head 8.74303 -2.54234 3.38921
rclavicle 9.69075e-015 -1.82882e-014
rhumerus 37.5726 6.38422 -49.3301
rradius 32.2277
rwrist -3.27262
rhand -7.29297 25.2582
rfingers 7.12502
rthumb 18.589 -3.87358
lclavicle 9.69075e-015 -1.82882e-014
lhumerus 25.5848 0.520608 52.3971
lradius 33.2937
lwrist -17.7341
lhand 4.59291 34.8106
lfingers 7.12502
lthumb 29.9816 62.4012
rfemur -26.6941 -7.24553 16.6771
rtibia 35.009
rfoot -4.92195 -14.1256
rtoes 22.7788
lfemur 6.58657 -1.55553 -12.4006
ltibia 38.7984
lfoot 11.0113 -22.1924
ltoes -7.70567
58
root 3.86711 17.5337 15.0017 179.724 -15.0497 -182.12
lowerback 4.10248 -0.181565 -2.30252
upperback 0.0307044 -0.331253 1.96052
thorax -2.24524 -0.140839 3.33354
lowerneck -18.1377 -5.00121 -11.6474
upperneck 17.1517 -5.14958 6.37437
head 8.8307 -2.57272 3.40182
rclavicle -3.22652e-014 -1.90833e-014
rhumerus 37.542 6.73022 -49.9759
rradius 32.0266
rwrist -3.03533
rhand -7.01787 25.4379
rfingers 7.12502
rthumb 18.8536 -3.66836
lclavicle -3.22652e-014 -1.90833e-014
lhumerus 25.9724 0.845326 52.3673
lradius 33.1622
lwrist -17.7894
lhand 4.39944 34.9221
lfingers 7.12502
lthumb 29.797 62.5459
rfemur -26.0806 -7.22668 17.2126
rtibia 35.1678
rfoot -5.46741 -13.6604
rtoes 22.2325
lfemur 5.76453 -1.88635 -12.134
ltibia 40.6261
lfoot 11.3976 -22.8684
ltoes -9.40611
59
root 3.86906 17.5586 14.8411 179.52 -14.4811 -181.991
lowerback 4.03965 -0.0272136 -1.92543
upperback 0.0399755 -0.109211 2.10723
thorax -2.21738 -0.0363478 3.25892
lowerneck -17.8176 -5.16341 -11.8149
upperneck 16.8427 -5.41512 6.66693
head 8.70786 -2.67822 3.49515
rclavicle -3.28243e-014 3.81667e-014
rhumerus 37.3189 6.78401 -50.6565
rradius 31.8152
rwrist -2.6747
rhand -6.64668 25.581
rfingers 7.12502
rthumb 19.2106 -3.49016
lclavicle -3.28243e-014 3.81667e-014
lhumerus 26.4358 0.845653 52.1592
lradius 33.1579
lwrist -17.7461
lhand 4.25679 34.5707
lfingers 7.12502
lthumb 29.6608 62.2189
rfemur -25.3603 -7.08439 17.5379
rtibia 35.2688
rfoot -6.01997 -13.0679
rtoes 22.0162
lfemur 5.04808 -2.31652 -12.1725
ltibia 42.482
lfoot 11.5464 -23.2169
ltoes -8.69275
60
root 3.86998 17.5802 14.685 179.389 -13.8562 -181.955
lowerback 3.92663 0.184165 -1.64822
upperback 0.0718742 0.18359 2.23875
thorax -2.14142 0.103765 3.221
lowerneck -17.5996 -5.18101 -11.7973
upperneck 16.522 -5.46919 6.7508
head 8.56755 -2.69128 3.51419
rclavicle 9.91439e-015 7.95139e-015
rhumerus 37.0901 6.89889 -51.075
rradius 31.6507
rwrist -2.55645
rhand -6.56458 25.5548
rfingers 7.12502
rthumb 19.2895 -3.50855
lclavicle 9.91439e-015 7.95139e-015
lhumerus 26.9861 0.809081 52.0169
lradius 33.2222
lwrist -17.6406
lhand 4.40761 33.9823
lfingers 7.12502
lthumb 29.8048 61.6047
rfemur -24.749 -6.70488 17.7051
rtibia 35.3821
rfoot -6.57101 -12.5722
rtoes 21.3848
lfemur 4.31513 -2.53545 -12.2496
ltibia 44.2902
lfoot 11.7927 -23.2432
ltoes -6.19126
61
root 3.87033 17.5956 14.5367 179.416 -13.3712 -182.351
lowerback 3.83308 0.291155 -1.94085
upperback 0.129649 0.313201 2.39985
thorax -2.04119 0.168494 3.54597
lowerneck -17.8996 -5.25048 -11.9685
upperneck 16.5666 -5.45403 6.63953
head 8.63665 -2.69891 3.50207
rclavicle -9.87711e-015 1.43125e-014
rhumerus 36.9818 7.47688 -51.025
rradius 31.7432
rwrist -2.91022
rhand -7.02548 25.4094
rfingers 7.12502
rthumb 18.8463 -3.69761
lclavicle -9.87711e-015 1.43125e-014
lhumerus 27.4457 1.17092 52.1721
lradius 33.2616
lwrist -17.7172
lhand 4.40458 33.6316
lfingers 7.12502
lthumb 29.8019 61.2546
rfemur -24.3086 -6.5542 17.4046
rtibia 35.579
rfoot -7.06383 -12.1473
rtoes 19.6428
lfemur 3.49096 -2.56213 -12.7438
ltibia 45.9912
lfoot 11.206 -23.0841
ltoes -8.1584
62
root 3.87335 17.6067 14.3854 179.509 -12.8735 -182.885
lowerback 3.65673 0.347852 -2.38499
upperback 0.160651 0.374108 2.45447
thorax -1.91853 0.201499 3.85092
lowerneck -18.0537 -5.26552 -12.3832
upperneck 16.6708 -5.43161 7.04368
head 8.72136 -2.67287 3.71205
rclavicle -1.84249e-014 -3.4191e-014
rhumerus 36.8522 7.68527 -51.6006
rradius 31.7297
rwrist -2.84858
rhand -7.02112 25.463
rfingers 7.12502
rthumb 18.8505 -3.64355
lclavicle -1.84249e-014 -3.4191e-014
lhumerus 27.8265 1.51123 52.1459
lradius 33.2809
lwrist -17.8219
lhand 4.02746 33.7899
lfingers 7.12502
lthumb 29.4419 61.4768
rfemur -23.9456 -6.54796 17.0096
rtibia 35.8183
rfoot -7.52697 -11.6494
rtoes 18.068
lfemur 2.64997 -2.62827 -13.4475
ltibia 47.5894
lfoot 9.24959 -22.467
ltoes -13.1763
63
root 3.88039 17.6143 14.2323 179.276 -12.1934 -182.605
lowerback 3.69974 0.404687 -1.90788
upperback 0.171273 0.463459 2.58272
thorax -1.93647 0.238953 3.70899
lowerneck -17.9337 -4.99301 -12.6289
upperneck 16.5565 -5.13683 7.70343
head 8.65423 -2.48485 4.02375
rclavicle -4.93234e-015 -7.15625e-015
rhumerus 36.6657 7.80128 -52.636
rradius 31.6916
rwrist -2.8539
rhand -6.5641 25.7822
rfingers 7.12502
rthumb 19.29 -3.28105
lclavicle -4.93234e-015 -7.15625e-015
lhumerus 28.2157 1.66048 51.643
lradius 33.2188
lwrist -17.6406
lhand 3.32782 34.2699
lfingers 7.12502
lthumb 28.7738 62.0723
rfemur -23.3667 -6.16303 17.48
rtibia 36.0019
rfoot -8.17384 -11.1946
rtoes 17.7854
lfemur 2.0368 -2.46171 -13.1967
ltibia 49.1254
lfoot 6.62375 -21.6485
ltoes -16.479
64
root 3.88759 17.6264 14.0818 178.923 -11.5016 -182.092
lowerback 3.90606 0.429812 -1.24557
upperback 0.173719 0.513174 2.83744
thorax -2.05006 0.253024 3.59536
lowerneck -18.4162 -4.94966 -12.231
upperneck 16.9272 -5.02553 7.15249
head 8.82787 -2.45991 3.78124
rclavicle -2.38169e-014 1.90833e-014
rhumerus 36.3996 8.36587 -53.2808
rradius 31.8994
rwrist -3.13835
rhand -6.73096 25.8736
rfingers 7.12502
rthumb 19.1296 -3.20565
lclavicle -2.38169e-014 1.90833e-014
lhumerus 28.5738 1.8487 51.157
lradius 33.1086
lwrist -17.3855
lhand 2.02489 35.1389
lfingers 7.12502
lthumb 27.5284 63.1463
rfemur -22.5868 -5.57228 18.1516
rtibia 36.0275
rfoot -8.90944 -10.9087
rtoes 17.3553
lfemur 1.46732 -2.1144 -12.658
ltibia 50.6207
lfoot 4.38481 -20.9419
ltoes -17.2817
